<?xml version="1.0" encoding="UTF-8"?>
<svg width="16px" height="16px" viewBox="0 0 16 16" version="1.1" xmlns="http://www.w3.org/2000/svg" xmlns:xlink="http://www.w3.org/1999/xlink">
    <!-- Generator: Sketch 47.1 (45422) - http://www.bohemiancoding.com/sketch -->
    <title>Clock</title>
    <desc>Created with Sketch.</desc>
    <defs></defs>
    <g id="Page-1" stroke="none" stroke-width="1" fill="none" fill-rule="evenodd">
        <g id="Desktop_Academic_marketing_04" transform="translate(-558.000000, -1326.000000)" fill="#4F4F4F">
            <g id="Group-8" transform="translate(533.000000, 1114.000000)">
                <g id="Group-6" transform="translate(25.000000, 173.000000)">
                    <g id="Icon/Clock/Default" transform="translate(0.000000, 39.000000)">
                        <path d="M0.271760515,5.92842718 C-0.866906152,10.1784272 1.67842718,14.5877605 5.92842718,15.7264272 C10.1784272,16.8650938 14.5877605,14.3197605 15.7264272,10.0697605 C16.8650938,5.81976051 14.3197605,1.41042718 10.0697605,0.271760515 C5.81976051,-0.866906152 1.41042718,1.67842718 0.271760515,5.92842718 L0.271760515,5.92842718 Z M14.1810938,9.65576051 C13.2697605,13.0557605 9.74309385,15.0924272 6.34242718,14.1810938 C2.94176051,13.2697605 0.905760515,9.74309385 1.81709385,6.34242718 C2.72842718,2.94242718 6.25509385,0.905760515 9.65576051,1.81709385 C13.0564272,2.72842718 15.0924272,6.25509385 14.1810938,9.65576051 L14.1810938,9.65576051 Z M4.23909385,6.57776051 L3.92842718,7.73709385 L8.56509385,8.97909385 L12.1144272,5.62309385 L11.2757605,4.73576051 L8.25776051,7.65376051 L4.23976051,6.57709385 L4.23909385,6.57776051 L4.23909385,6.57776051 Z" id="Clock"></path>
                    </g>
                </g>
            </g>
        </g>
    </g>
</svg>