<svg xmlns="http://www.w3.org/2000/svg" width="66" height="66" viewBox="0 0 66 66">
    <g fill="none" fill-rule="evenodd" transform="translate(1 1)">
        <circle cx="32" cy="32" r="32" fill="#FFF" stroke="#009EE8"/>
        <g fill="#009EE8" fill-rule="nonzero">
            <path d="M41.29 43a1 1 0 0 1-.7-.29l-19.3-19.3a1 1 0 0 1 0-1.41l.71-.71a1 1 0 0 1 1.41 0l19.3 19.3a1 1 0 0 1 0 1.41l-.71.71a1 1 0 0 1-.71.29z"/>
            <path d="M22.71 43a1 1 0 0 1-.71-.29l-.71-.71a1 1 0 0 1 0-1.41l19.3-19.3a1 1 0 0 1 1.41 0l.71.71a1 1 0 0 1 0 1.41l-19.3 19.3a1 1 0 0 1-.7.29z"/>
        </g>
    </g>
</svg>
